<?xml version="1.0" encoding="UTF-8"?>
<!DOCTYPE svg PUBLIC "-//W3C//DTD SVG 1.1//EN" "http://www.w3.org/Graphics/SVG/1.1/DTD/svg11.dtd">
<svg xmlns="http://www.w3.org/2000/svg" version="1.1" width="97px" height="97px" style="shape-rendering:geometricPrecision; text-rendering:geometricPrecision; image-rendering:optimizeQuality; fill-rule:evenodd; clip-rule:evenodd"
    xmlns:xlink="http://www.w3.org/1999/xlink">
    <g>
        <path style="opacity:0.691" fill="#ffffff" d="M 2.5,-0.5 C 3.83333,-0.5 5.16667,-0.5 6.5,-0.5C 6.5,0.5 6.5,1.5 6.5,2.5C 7.5,2.5 8.5,2.5 9.5,2.5C 9.5,3.83333 9.5,5.16667 9.5,6.5C 8.5,6.5 7.5,6.5 6.5,6.5C 6.5,7.5 6.5,8.5 6.5,9.5C 5.16667,9.5 3.83333,9.5 2.5,9.5C 2.5,8.5 2.5,7.5 2.5,6.5C 1.5,6.5 0.5,6.5 -0.5,6.5C -0.5,5.16667 -0.5,3.83333 -0.5,2.5C 0.5,2.5 1.5,2.5 2.5,2.5C 2.5,1.5 2.5,0.5 2.5,-0.5 Z M 3.5,3.5 C 5.33702,3.63945 5.67036,4.30612 4.5,5.5C 3.70245,5.04311 3.36912,4.37644 3.5,3.5 Z"/>
    </g>
    <g>
        <path style="opacity:0.894" fill="#ffffff" d="M 39.5,-0.5 C 41.8333,-0.5 44.1667,-0.5 46.5,-0.5C 46.5,2.83333 46.5,6.16667 46.5,9.5C 39.616,10.4458 37.616,13.9458 40.5,20C 42.3453,21.128 44.3453,21.628 46.5,21.5C 46.5,27.8333 46.5,34.1667 46.5,40.5C 42.8333,40.5 39.1667,40.5 35.5,40.5C 36.1962,47.9974 33.3628,49.9974 27,46.5C 26.5045,44.5273 26.3379,42.5273 26.5,40.5C 21.8333,40.5 17.1667,40.5 12.5,40.5C 10.7395,19.6754 19.7395,6.00876 39.5,-0.5 Z M 27.5,19.5 C 29.0481,19.8212 29.7148,20.8212 29.5,22.5C 31.1992,22.3398 32.8659,22.5065 34.5,23C 32.0067,24.3246 30.84,26.4913 31,29.5C 29.3333,26.8333 27.6667,26.8333 26,29.5C 26.16,26.4913 24.9933,24.3246 22.5,23C 24.1341,22.5065 25.8008,22.3398 27.5,22.5C 27.5,21.5 27.5,20.5 27.5,19.5 Z"/>
    </g>
    <g>
        <path style="opacity:0.88" fill="#ffffff" d="M 48.5,-0.5 C 50.8333,-0.5 53.1667,-0.5 55.5,-0.5C 75.7827,5.48271 85.116,19.1494 83.5,40.5C 79.5,40.5 75.5,40.5 71.5,40.5C 70.707,35.2241 67.707,33.3908 62.5,35C 61.1279,36.2419 60.1279,37.7419 59.5,39.5C 55.8927,40.4892 52.226,40.8226 48.5,40.5C 48.5,33.5 48.5,26.5 48.5,19.5C 42.8377,20.8245 40.5044,18.8245 41.5,13.5C 43.686,12.7792 45.8526,12.1125 48,11.5C 48.4988,7.51383 48.6655,3.51383 48.5,-0.5 Z M 56.5,14.5 C 58.5996,14.4772 60.4329,15.1439 62,16.5C 67.0288,13.2006 69.3621,14.5339 69,20.5C 66.6667,22.8333 64.3333,25.1667 62,27.5C 59.6667,25.1667 57.3333,22.8333 55,20.5C 54.2516,18.1599 54.7516,16.1599 56.5,14.5 Z"/>
    </g>
    <g>
        <path style="opacity:0.69" fill="#ffffff" d="M 89.5,-0.5 C 90.8333,-0.5 92.1667,-0.5 93.5,-0.5C 93.5,0.5 93.5,1.5 93.5,2.5C 94.5,2.5 95.5,2.5 96.5,2.5C 96.5,3.83333 96.5,5.16667 96.5,6.5C 95.5,6.5 94.5,6.5 93.5,6.5C 93.5,7.5 93.5,8.5 93.5,9.5C 92.1667,9.5 90.8333,9.5 89.5,9.5C 89.5,8.5 89.5,7.5 89.5,6.5C 88.5,6.5 87.5,6.5 86.5,6.5C 86.5,5.16667 86.5,3.83333 86.5,2.5C 87.5,2.5 88.5,2.5 89.5,2.5C 89.5,1.5 89.5,0.5 89.5,-0.5 Z M 90.5,3.5 C 92.337,3.63945 92.6704,4.30612 91.5,5.5C 90.7025,5.04311 90.3691,4.37644 90.5,3.5 Z"/>
    </g>
    <g>
        <path style="opacity:0.866" fill="#ffffff" d="M 63.5,36.5 C 68.1606,35.8321 70.1606,37.8321 69.5,42.5C 74.1785,42.3342 78.8452,42.5008 83.5,43C 81.5161,53.1347 77.0161,61.9681 70,69.5C 69.5045,71.4727 69.3379,73.4727 69.5,75.5C 62.5,75.5 55.5,75.5 48.5,75.5C 48.1744,71.1161 48.5078,66.7828 49.5,62.5C 56.6401,61.3369 58.3067,57.6702 54.5,51.5C 52.5914,50.6518 50.5914,50.3184 48.5,50.5C 48.5,47.8333 48.5,45.1667 48.5,42.5C 52.8333,42.5 57.1667,42.5 61.5,42.5C 61.2525,40.1417 61.9192,38.1417 63.5,36.5 Z M 66.5,48.5 C 68.256,49.5521 68.9227,51.2188 68.5,53.5C 75.1667,54.1667 75.1667,54.8333 68.5,55.5C 67.8333,62.1667 67.1667,62.1667 66.5,55.5C 59.8333,54.8333 59.8333,54.1667 66.5,53.5C 66.5,51.8333 66.5,50.1667 66.5,48.5 Z"/>
    </g>
    <g>
        <path style="opacity:0.885" fill="#ffffff" d="M 12.5,42.5 C 16.5,42.5 20.5,42.5 24.5,42.5C 25.3116,50.1565 29.145,52.1565 36,48.5C 37.128,46.6547 37.628,44.6547 37.5,42.5C 40.5,42.5 43.5,42.5 46.5,42.5C 46.3354,45.5184 46.502,48.5184 47,51.5C 49.0693,52.2638 51.236,52.7638 53.5,53C 54.8333,55 54.8333,57 53.5,59C 51.236,59.2362 49.0693,59.7362 47,60.5C 46.5007,65.4889 46.3341,70.4889 46.5,75.5C 39.8333,75.5 33.1667,75.5 26.5,75.5C 26.313,73.4357 25.813,71.4357 25,69.5C 18.6713,61.5088 14.5046,52.5088 12.5,42.5 Z M 29.5,56.5 C 32.5184,56.3354 35.5184,56.502 38.5,57C 41.5856,60.5105 40.919,62.6771 36.5,63.5C 36.6567,64.8734 36.49,66.2068 36,67.5C 34.3626,65.1898 32.196,63.6898 29.5,63C 26.9387,60.8441 26.9387,58.6774 29.5,56.5 Z"/>
    </g>
    <g>
        <path style="opacity:0.86" fill="#ffffff" d="M 63.5,96.5 C 52.8333,96.5 42.1667,96.5 31.5,96.5C 29.8736,93.7543 29.2069,90.7543 29.5,87.5C 24.1496,86.8163 22.3163,83.8163 24,78.5C 24.7504,77.8742 25.5838,77.3742 26.5,77C 40.8333,76.3333 55.1667,76.3333 69.5,77C 73.9215,81.3948 73.2548,84.8948 67.5,87.5C 66.9013,90.8755 65.568,93.8755 63.5,96.5 Z"/>
    </g>
</svg>
